PathFileType	4	(X/Y/Z)	/Users/niels/Desktop/University/Third Semester/Perception and Action/Exam/Gymnastics Motion Tracking/Code for Gym Tracking/Analyzed Data/Webcam_Backflip/id1_3_trajectory_Sports2D/id1_3_trajectory_Sports2D_px_person00.trc
DataRate	CameraRate	NumFrames	NumMarkers	Units	OrigDataRate	OrigDataStartFrame	OrigNumFrames
29.87551867219917	29.87551867219917	12	22	m	29.87551867219917	120	241
Frame#	Time	Hip			RHip			RKnee			RAnkle			RBigToe			RSmallToe			RHeel			LHip			LKnee			LAnkle			LBigToe			LSmallToe			LHeel			Neck			Head			Nose			RShoulder			RElbow			RWrist			LShoulder			LElbow			LWrist		
		X1	Y1	Z1	X2	Y2	Z2	X3	Y3	Z3	X4	Y4	Z4	X5	Y5	Z5	X6	Y6	Z6	X7	Y7	Z7	X8	Y8	Z8	X9	Y9	Z9	X10	Y10	Z10	X11	Y11	Z11	X12	Y12	Z12	X13	Y13	Z13	X14	Y14	Z14	X15	Y15	Z15	X16	Y16	Z16	X17	Y17	Z17	X18	Y18	Z18	X19	Y19	Z19	X20	Y20	Z20	X21	Y21	Z21	X22	Y22	Z22
120	4.016666666666667	0.8836300463733674	-0.5985366473138563	0.0	0.8759857412645812	-0.5970941802548733	0.0	0.8939361944700507	-0.7035509432465867	0.0	0.8893792141094743	-0.8227560460312091	0.0	0.936725932690422	-0.8348514514627279	0.0	0.926221988424275	-0.8394959836430828	0.0	0.8814297968348651	-0.8388188507093913	0.0	0.8936756866394331	-0.5960179210944603	0.0	0.9144156038074578	-0.6954561391099081	0.0	0.8595005743966645	-0.793611939663094	0.0	0.9024770788394026	-0.8216803534117559	0.0	0.8945892219622783	-0.8161191750132578	0.0	0.8453681232757602	-0.8081991337450324	0.0	0.8972632497177885	-0.44111666571499974	0.0	0.9402133453281801	-0.3832383747528871	0.0	0.941259934105245	-0.42821602579620743	0.0	0.8697033629735905	-0.45768440212814837	0.0	0.8333110099870404	-0.525321281811527	0.0	0.8572239253047617	-0.5963730696754516	0.0	0.897230323621808	-0.46202708494547823	0.0	0.8807790053078225	-0.5323683666034787	0.0	0.8992086356421924	-0.5925883764248723	0.0
121	4.050138888888889	0.8816502300878164	-0.6017448166573806	0.0	0.8751517778071591	-0.6005578084541006	0.0	0.8950826184630315	-0.7058118822183224	0.0	0.8898112284368321	-0.8247627470679768	0.0	0.9366560296776223	-0.8369396366509086	0.0	0.9263197338871055	-0.8413610491092366	0.0	0.8812657421750669	-0.8406961905748322	0.0	0.8912821789871795	-0.5998007363553607	0.0	0.9032899571528419	-0.7002654375498831	0.0	0.852000717652	-0.800416824616119	0.0	0.8939355455654421	-0.8250460093576292	0.0	0.8876222195498801	-0.8202639649282937	0.0	0.8386767468270547	-0.8158426716176695	0.0	0.8953627027292069	-0.44391894998522585	0.0	0.936855516845557	-0.38503106702422235	0.0	0.9393485855769781	-0.42980525679415466	0.0	0.8670741349334543	-0.46081815641871593	0.0	0.8308823943085936	-0.5281699078524038	0.0	0.8505251866051015	-0.6007661472789507	0.0	0.8961082302902537	-0.4657072986346107	0.0	0.8820272760006413	-0.5367729767672474	0.0	0.899500288197675	-0.5978911116078943	0.0
122	4.083611111111111	0.8793328673279982	-0.6044107571570023	0.0	0.8740838685418478	-0.6035999624050363	0.0	0.8959591776127296	-0.7074336689414399	0.0	0.8901794558482797	-0.8261751363350067	0.0	0.93666284905631	-0.8378239521804649	0.0	0.9266479760771988	-0.8422151519890754	0.0	0.8809759746336664	-0.8419213281919996	0.0	0.8884170314192642	-0.6031921444174071	0.0	0.8920301035044612	-0.7044177066253184	0.0	0.84675343735185	-0.8073834685436461	0.0	0.8879924939191112	-0.8279187559415736	0.0	0.8830972559073363	-0.8239981605311077	0.0	0.8346252930056696	-0.823490524657799	0.0	0.8935682110323175	-0.44628929103628984	0.0	0.9339280243569231	-0.38652316464458697	0.0	0.9377070223242937	-0.4312007853000422	0.0	0.8649225839820877	-0.4633320857285034	0.0	0.82856148930036	-0.53022186065183	0.0	0.8442060531210382	-0.6036465373685336	0.0	0.8949317926814156	-0.46867982827501165	0.0	0.8827296129879489	-0.5403047413735692	0.0	0.9002605426569309	-0.6013831870281	0.0
123	4.117083333333333	0.8768914187382226	-0.6063046885885848	0.0	0.8727264304655288	-0.6059122937222866	0.0	0.8963182573566685	-0.7084556866785628	0.0	0.890425962698883	-0.8269201405546915	0.0	0.9367217612811736	-0.8375763761517692	0.0	0.927090959670918	-0.8421163151407464	0.0	0.8806639068381871	-0.8424422035328479	0.0	0.8853198093110406	-0.6058570122651995	0.0	0.8823205746836941	-0.7075293414278733	0.0	0.8434662677861714	-0.8132201583842239	0.0	0.884318141790194	-0.8300505038872333	0.0	0.8804239556565088	-0.8268725084988899	0.0	0.8325912538704773	-0.8296566125665416	0.0	0.8918489452488929	-0.44797868959515547	0.0	0.9313951978143007	-0.38759353030213095	0.0	0.9362121774418126	-0.43223603602975874	0.0	0.8631696534722493	-0.46510117638843107	0.0	0.826651844365123	-0.5315788123019771	0.0	0.8386242855020509	-0.6052966348671212	0.0	0.8937065685178399	-0.4707218207976819	0.0	0.8831563628940979	-0.5428215372180897	0.0	0.90116115392282	-0.6033465842015804	0.0
124	4.150555555555556	0.8744708610756385	-0.6072989273489932	0.0	0.8711107430149965	-0.607286361104739	0.0	0.8960928884784394	-0.7088798889387808	0.0	0.8905400165588961	-0.8268743625018878	0.0	0.9368288073011126	-0.8363523587745209	0.0	0.9275402703900545	-0.8411223285833762	0.0	0.8804112947856606	-0.8421846951718754	0.0	0.882188966167806	-0.6075541442948815	0.0	0.8749244074862441	-0.7094015161500441	0.0	0.8416340580768122	-0.817225213974347	0.0	0.8822796589338029	-0.8312783533866532	0.0	0.8789792059514414	-0.8286074310737738	0.0	0.8318546016611577	-0.8336167683996719	0.0	0.8901727794780129	-0.4487653948843585	0.0	0.9291429284329397	-0.3880764100484017	0.0	0.9347241428722506	-0.4327189608290431	0.0	0.861630367701143	-0.46597056379838775	0.0	0.825195807155997	-0.5321813721461778	0.0	0.8340335480443019	-0.6057101350778074	0.0	0.8924643623252494	-0.4717337944191508	0.0	0.8835654616996862	-0.5442616189022608	0.0	0.9021381106657371	-0.6040071897460931	0.0
125	4.184027777777778	0.8721035461767458	-0.6073060798568881	0.0	0.8693378631811722	-0.6075496903994604	0.0	0.8953927933299421	-0.7085881537404032	0.0	0.8905466540194051	-0.8259255185982239	0.0	0.9370073532792679	-0.8343140245804761	0.0	0.9279643768899516	-0.8392963092060982	0.0	0.8802602220967897	-0.8410758949043993	0.0	0.8790895269759939	-0.6081030733310727	0.0	0.869719334299188	-0.709959918895591	0.0	0.8407073302852336	-0.8192417717138184	0.0	0.8812546951937973	-0.8314843894555052	0.0	0.8782582338986774	-0.8290624253443866	0.0	0.8318016047049198	-0.8353231540968913	0.0	0.8885341893102685	-0.4485178957148099	0.0	0.9270694616654384	-0.3877973391981193	0.0	0.9331860992831545	-0.43246292337782677	0.0	0.8601293450999904	-0.46581440430670484	0.0	0.8240039591224965	-0.5318675185336112	0.0	0.8306174508914687	-0.6047308053192086	0.0	0.8912229177253309	-0.47167784227144705	0.0	0.8839858128938668	-0.5446323559994691	0.0	0.9032370860568529	-0.6035476715073723	0.0
126	4.2175	0.8697724676366843	-0.606232468371086	0.0	0.8675214536943145	-0.6065491873168934	0.0	0.8944198122134688	-0.7073995889288683	0.0	0.8905005105751108	-0.824053686490931	0.0	0.9372677004021699	-0.8316081765659462	0.0	0.9283813515531675	-0.8367403407504853	0.0	0.8802237727664253	-0.839100249221741	0.0	0.8760192979694237	-0.6073498521285225	0.0	0.8661637381693594	-0.7092068317524857	0.0	0.8402210103660318	-0.8194309656168728	0.0	0.8807827132158189	-0.830604541702919	0.0	0.8779253292005484	-0.8282357762760114	0.0	0.8319992472063535	-0.83510375237848	0.0	0.8869588131787697	-0.4472415770751853	0.0	0.9251675936650234	-0.38664289938583735	0.0	0.9316423234271801	-0.43134815657911335	0.0	0.8585870926201318	-0.4645847872964453	0.0	0.8227972649362497	-0.5304773103899636	0.0	0.8284803277092888	-0.602256311258283	0.0	0.8899876802489883	-0.4705648615763816	0.0	0.8842517354671022	-0.5439720881895007	0.0	0.904485697229785	-0.6021107755520702	0.0
127	4.250972222222222	0.8674970198796835	-0.6040146765491419	0.0	0.8657706748743365	-0.604249859361324	0.0	0.8933626268033197	-0.7052057692606079	0.0	0.8904618649845616	-0.8213596941823061	0.0	0.9375705255883467	-0.8283908338922404	0.0	0.9288061505771513	-0.8336109118026409	0.0	0.8802960870484005	-0.8363391023729224	0.0	0.8730310501092681	-0.6052409623402693	0.0	0.8637118488096246	-0.7072157223146641	0.0	0.8398905835479322	-0.8181084517049163	0.0	0.8805912708780934	-0.8286476970340467	0.0	0.8778273869469224	-0.8262731869301142	0.0	0.8322135409195671	-0.8333943690212855	0.0	0.8854784655247674	-0.4450764707732593	0.0	0.9235437950080941	-0.3846153141531753	0.0	0.9301444061612549	-0.4293870748451179	0.0	0.8570255409181883	-0.4623448512495358	0.0	0.821389225612179	-0.5279836383044361	0.0	0.8276105479637891	-0.5984118742537857	0.0	0.8887602221718928	-0.468488869393794	0.0	0.8841827986921446	-0.5423523623975403	0.0	0.9058295171231016	-0.5998344665628628	0.0
128	4.2844444444444445	0.8653653204636411	-0.6007453887837627	0.0	0.8642004881870298	-0.600845335720873	0.0	0.8923132735363438	-0.7021138248633626	0.0	0.8904527455922029	-0.8180596240066058	0.0	0.9378491992983979	-0.824861297279997	0.0	0.9292156762138265	-0.830126092646902	0.0	0.8804516146888746	-0.8329841779273977	0.0	0.8702515501131112	-0.6019555649114584	0.0	0.8619461384598219	-0.7041941245132168	0.0	0.8396031025267167	-0.8156886835067731	0.0	0.8805295064665544	-0.8257398868968238	0.0	0.8779690880569908	-0.8234651583392377	0.0	0.8323653173792624	-0.8306411374590893	0.0	0.8841043989411693	-0.44226057704860666	0.0	0.9223376995688467	-0.3818545261118545	0.0	0.9286885473396161	-0.42673530711680524	0.0	0.8555000567986424	-0.45930603403324494	0.0	0.8197838679578615	-0.5245994414875894	0.0	0.827883951750263	-0.5936007448691111	0.0	0.887543322654155	-0.4656533520342654	0.0	0.8837108667340481	-0.539923361623114	0.0	0.9071113899384973	-0.5969096199617656	0.0
129	4.317916666666667	0.8634975244321613	-0.5967462178655389	0.0	0.8629022283030938	-0.5967342983505927	0.0	0.8912654262921208	-0.6984842895321363	0.0	0.8904350243442071	-0.8144670369292846	0.0	0.9380549997585982	-0.8212859998168487	0.0	0.9295445617959263	-0.826571348127309	0.0	0.880635092694642	-0.8293313021028866	0.0	0.8677880625361317	-0.5979004319372387	0.0	0.8605401612929893	-0.7005274615685398	0.0	0.8393269982300113	-0.8126631429329573	0.0	0.8804754000018893	-0.8221997713364638	0.0	0.878441341096028	-0.8202201971906312	0.0	0.8324441071581891	-0.827316161490954	0.0	0.8828323300487032	-0.4390795082682325	0.0	0.9215946087410843	-0.37863336893149085	0.0	0.9272684926014273	-0.4236535129311021	0.0	0.8540431993875791	-0.45581605322552204	0.0	0.8181413773296584	-0.5207612602858436	0.0	0.8291097044776244	-0.5883919389131964	0.0	0.8863525680811083	-0.4623553233195647	0.0	0.8828854829185241	-0.5369499547098527	0.0	0.9081116836016726	-0.5935913980955755	0.0
130	4.351388888888889	0.8619849476706583	-0.5925110550480303	0.0	0.8618887076694071	-0.592404472782047	0.0	0.8901917736023014	-0.6947920687275396	0.0	0.8903478259038018	-0.8109414120234923	0.0	0.938173279378239	-0.8179628914914393	0.0	0.9297218811228972	-0.8232520362856258	0.0	0.880763465296837	-0.8257329971269729	0.0	0.8656532416383882	-0.5935844152611149	0.0	0.8592497328381139	-0.6967008374866805	0.0	0.8390439445903878	-0.8095319157223021	0.0	0.8802926823199722	-0.8185157004081557	0.0	0.8793500314835466	-0.8169919750773972	0.0	0.8324532049865061	-0.823902526198234	0.0	0.8816663302717117	-0.43583362439628137	0.0	0.9212118502911001	-0.3753066147582345	0.0	0.9259310881385336	-0.4204552199641884	0.0	0.8526747074385537	-0.4522756357253841	0.0	0.8166679709657667	-0.5169792075799517	0.0	0.831073356491745	-0.5833483086250325	0.0	0.8852218829338567	-0.4589563586593876	0.0	0.8818229078816607	-0.5338059461892593	0.0	0.9086458882697455	-0.5901782854234902	0.0
131	4.384861111111111	0.8608536559763157	-0.5885794672874779	0.0	0.8610791757167999	-0.5883389834987343	0.0	0.8890880475608391	-0.6914464020868348	0.0	0.8901639039757436	-0.8078286323697889	0.0	0.9381987116598058	-0.8151352982133323	0.0	0.9297103632685216	-0.8204130103191071	0.0	0.8807665032259302	-0.8225423419031684	0.0	0.8638000564454981	-0.5895124738553029	0.0	0.8579655856206622	-0.693161856101494	0.0	0.8387466606661721	-0.8067093965461818	0.0	0.8798925567270289	-0.8151854138739284	0.0	0.8808027644992055	-0.8141728451763953	0.0	0.8323976512036033	-0.8208338157644463	0.0	0.8806275776976447	-0.4328199328383606	0.0	0.9209958911606488	-0.3722252109687375	0.0	0.9247458716260227	-0.41745279752964337	0.0	0.8514438514121366	-0.44904279884763554	0.0	0.815528105260322	-0.5136698859726672	0.0	0.8335592677918968	-0.5789334170556415	0.0	0.8841934917133532	-0.4558419412324591	0.0	0.8806516300268704	-0.53091214891167	0.0	0.908646597516523	-0.5870002079637253	0.0
